<svg id="Capa_1" data-name="Capa 1" xmlns="http://www.w3.org/2000/svg" viewBox="0 0 107.38 29.63"><defs><style>.cls-1{fill:#fff;}</style></defs><path class="cls-1" d="M306.32,391.21a10.89,10.89,0,0,0-4.23-1.67c-.33-.05-.53-.06-.53-.06l0,.42V390a10.17,10.17,0,0,0,.58,2.29,10.61,10.61,0,0,0,1.14,2.21l3.14-3.14-.14-.1" transform="translate(-252.7 -380.85)"/><path class="cls-1" d="M316.43,389.44l-.26,0-.32,0c-.22,0-.48.09-.78.17l-.54.16a10.72,10.72,0,0,0-1.22.47l-.4.19h0l-.37.19c-.26.15-.53.31-.8.49l3.1,3.11h0a10.91,10.91,0,0,0,.64-1.12l.13-.28a8.17,8.17,0,0,0,.37-.9,11.63,11.63,0,0,0,.4-1.4c0-.16.06-.31.08-.44a5.39,5.39,0,0,0,.07-.73h-.11" transform="translate(-252.7 -380.85)"/><path class="cls-1" d="M305.2,403.33l.36-.19a8.73,8.73,0,0,0,.81-.49l-3.12-3.11a9.94,9.94,0,0,0-.64,1.12l-.13.27c-.14.31-.26.62-.37.91a9.76,9.76,0,0,0-.39,1.39c0,.17-.06.32-.08.45a7.16,7.16,0,0,0-.08.73h.12l.25,0,.33-.05a6.64,6.64,0,0,0,.78-.17l.53-.15a11,11,0,0,0,1.23-.48l.4-.19h0" transform="translate(-252.7 -380.85)"/><path class="cls-1" d="M316.56,403.6l-.06-.31a11.06,11.06,0,0,0-.35-1.24c0-.07,0-.14-.08-.22a11,11,0,0,0-.56-1.25,10.76,10.76,0,0,0-.71-1.17l-3.19,3.19.15.1a8.56,8.56,0,0,0,1.09.66,12.26,12.26,0,0,0,1.55.68l.51.16a7.64,7.64,0,0,0,1.76.33,7.31,7.31,0,0,0-.11-.93" transform="translate(-252.7 -380.85)"/><polygon class="cls-1" points="58.83 12 58.83 12.02 58.83 12.02 58.83 12"/><path class="cls-1" d="M319.29,396.67l0,0a8.92,8.92,0,0,0-2-1.3,11,11,0,0,0-2-.68l-.55-.11h0l-.29-.05-.4-.05h-.14a7.34,7.34,0,0,0-.81-.05h-.56l-.42.05-.42,1.07-.15.37,3.77,1-3.77,1,.49,1.23a4.55,4.55,0,0,0,.77.08h0c.25,0,.49,0,.73,0l.29,0h.11l.58-.07.15,0,.27,0,.16,0a11,11,0,0,0,4.17-1.72c.27-.2.42-.33.42-.33a3.46,3.46,0,0,0-.32-.27" transform="translate(-252.7 -380.85)"/><path class="cls-1" d="M311.37,399.93l0-.18-1.24-.54-.17.64-.13.46,0,.15,0,.11,0,.1,0,.1-.19.7-.11.41-.32,1.17v0l-.43-1.57,0-.12h0v0l-.12-.47-.12-.43-.17-.61-.15-.56-1.37.59a.28.28,0,0,1,0,.09c0,.05,0,.09,0,.14a4.74,4.74,0,0,0,0,.55v0c0,.14,0,.28,0,.41,0,.29,0,.56.06.82l.06.43s0,.05,0,.07v0c0,.15.06.29.08.43v0a10.47,10.47,0,0,0,.34,1.26c0,.1.06.19.1.29.12.32.25.62.38.9a9.28,9.28,0,0,0,.71,1.26l.26.38a6.28,6.28,0,0,0,.46.57l.07-.09a2.3,2.3,0,0,0,.16-.2l.2-.26c.13-.18.27-.41.43-.67s.18-.32.27-.5a11.56,11.56,0,0,0,.53-1.2l.15-.41.12-.4a10.1,10.1,0,0,0,.26-1.11l.06-.38c0-.24.07-.48.09-.73v0c0-.09,0-.19,0-.28s0-.4,0-.6a4.63,4.63,0,0,0-.06-.67" transform="translate(-252.7 -380.85)"/><path class="cls-1" d="M302.89,396.89l3.77-1-.49-1.23-.14,0h0l-.16,0-.46,0h-.52l-.47,0-.31,0-.31,0-.26,0-.25.05-.34.07c-.32.07-.61.15-.9.23a12,12,0,0,0-1.57.62l-.47.25a8.57,8.57,0,0,0-1.48,1,6.15,6.15,0,0,0,.73.59l.27.18a11.84,11.84,0,0,0,1.12.63l.21.09a10.37,10.37,0,0,0,1.28.5c.41.12.85.23,1.31.32l.3.05.55.07h.17l.51,0h.43a5.66,5.66,0,0,0,.6,0l.1,0v0l.12-.3.08-.2.08-.21.21-.52.07-.18Z" transform="translate(-252.7 -380.85)"/><path class="cls-1" d="M311.54,393v-.11h0c0-.14,0-.28,0-.42s0-.29,0-.43-.05-.41-.08-.6,0-.26-.07-.39-.05-.23-.08-.34a10.7,10.7,0,0,0-.73-2.1q-.15-.33-.3-.6a6.57,6.57,0,0,0-.36-.61c-.07-.12-.15-.23-.21-.32a5.87,5.87,0,0,0-.59-.74A8.58,8.58,0,0,0,308,388a11,11,0,0,0-.9,2.35s0,.06,0,.08,0,.19-.07.29,0,.07,0,.11c-.05.23-.09.46-.13.71,0,0,0,0,0,.06a11.71,11.71,0,0,0-.11,1.6c0,.11,0,.2,0,.3a1.09,1.09,0,0,1,0,.18c0,.13,0,.25.07.37l1.23.53.42-1.53v0l.09-.36.09-.32.4-1.47,0-.1v0l0,.14.3,1.11.27,1,.07.27.09.34.27,1h0l1.37-.59a4.94,4.94,0,0,0,.07-.79V393" transform="translate(-252.7 -380.85)"/><path class="cls-1" d="M323.44,389.48l-.11.51-.05,0a.9.9,0,0,0-.5-.16.48.48,0,0,0-.41.18.93.93,0,0,0-.13.54q0,.81.57.81a1.18,1.18,0,0,0,.52-.13l.05,0-.05.51a1.48,1.48,0,0,1-.57.11,1.12,1.12,0,0,1-.87-.33,1.3,1.3,0,0,1-.3-.93,1.37,1.37,0,0,1,.32-1,1.18,1.18,0,0,1,.89-.33,1.66,1.66,0,0,1,.64.12" transform="translate(-252.7 -380.85)"/><polygon class="cls-1" points="73.08 10.55 73.05 11.01 71.43 11.01 71.46 10.28 71.43 8.54 73.07 8.54 73.1 8.58 73.06 9.04 72.46 9.02 72.05 9.02 72.04 9.52 72.44 9.52 72.84 9.51 72.87 9.55 72.83 10.01 72.4 10 72.03 10 72.02 10.22 72.03 10.52 72.43 10.53 73.05 10.51 73.08 10.55"/><polygon class="cls-1" points="75.93 11.01 75.27 11.01 74.39 9.48 74.36 9.48 74.35 10.14 74.38 11.01 73.81 11.01 73.85 10.28 73.82 8.54 74.49 8.54 75.36 10.07 75.39 10.07 75.38 8.56 75.94 8.53 75.91 10.23 75.93 11.01"/><polygon class="cls-1" points="78.47 9.04 78 9.02 77.89 9.02 77.87 10.22 77.89 11.01 77.28 11.01 77.31 10.28 77.29 9.02 77.18 9.02 76.7 9.04 76.66 8.99 76.7 8.54 78.47 8.54 78.51 8.58 78.47 9.04"/><path class="cls-1" d="M333.92,391.72v.07a2.87,2.87,0,0,1-.61.12l-.06-.05-.4-.79h-.32l0,.8h-.62l0-.74,0-1.74h1a.88.88,0,0,1,.61.19.74.74,0,0,1,.22.56.79.79,0,0,1-.12.42.92.92,0,0,1-.32.33c.21.33.4.61.57.83m-1.06-1.1a.41.41,0,0,0,.28-.43.3.3,0,0,0-.1-.26.45.45,0,0,0-.29-.1h-.2l0,.76Z" transform="translate(-252.7 -380.85)"/><path class="cls-1" d="M336.42,389.67a1.29,1.29,0,0,1,.28.9,1.45,1.45,0,0,1-.31,1,1.13,1.13,0,0,1-.88.35,1,1,0,0,1-.8-.32,1.37,1.37,0,0,1-.29-.92,1.41,1.41,0,0,1,.31-1,1.16,1.16,0,0,1,.88-.34,1.05,1.05,0,0,1,.81.32m-1.16.25a.39.39,0,0,0-.15.23,1.63,1.63,0,0,0-.05.43,2.17,2.17,0,0,0,.05.51.51.51,0,0,0,.16.27.5.5,0,0,0,.29.08.59.59,0,0,0,.29-.07.42.42,0,0,0,.15-.23,1.36,1.36,0,0,0,.05-.44,1.71,1.71,0,0,0-.05-.5.47.47,0,0,0-.15-.27.53.53,0,0,0-.3-.08.62.62,0,0,0-.29.07" transform="translate(-252.7 -380.85)"/><path class="cls-1" d="M340.27,389.67a1.21,1.21,0,0,1,.29.86,1.41,1.41,0,0,1-.33,1,1.2,1.2,0,0,1-.93.36l-.89,0h0l0-.74,0-1.74h1a1.11,1.11,0,0,1,.82.29m-.36,1a1.18,1.18,0,0,0-.12-.62.42.42,0,0,0-.39-.19H339l0,1.19v.32a3.37,3.37,0,0,0,.4,0c.34,0,.5-.25.5-.75" transform="translate(-252.7 -380.85)"/><polygon class="cls-1" points="90.27 10.55 90.23 11.01 88.61 11.01 88.65 10.28 88.61 8.54 90.25 8.54 90.29 8.58 90.25 9.04 89.65 9.02 89.23 9.02 89.22 9.52 89.62 9.52 90.02 9.51 90.06 9.55 90.02 10.01 89.58 10 89.21 10 89.21 10.22 89.22 10.52 89.62 10.53 90.23 10.51 90.27 10.55"/><path class="cls-1" d="M346.32,389.48l-.11.51,0,0a.9.9,0,0,0-.5-.16.47.47,0,0,0-.41.18.86.86,0,0,0-.13.54q0,.81.57.81a1.21,1.21,0,0,0,.52-.13l0,0,0,.51a1.56,1.56,0,0,1-.57.11,1.12,1.12,0,0,1-.87-.33,1.3,1.3,0,0,1-.3-.93,1.37,1.37,0,0,1,.32-1,1.18,1.18,0,0,1,.89-.33,1.61,1.61,0,0,1,.63.12" transform="translate(-252.7 -380.85)"/><polygon class="cls-1" points="94.93 11.01 94.32 11.01 94.35 10.28 94.32 8.54 94.94 8.54 94.91 10.22 94.93 11.01"/><polygon class="cls-1" points="97.55 10.55 97.51 11.01 95.89 11.01 95.92 10.28 95.89 8.54 97.53 8.54 97.56 8.58 97.52 9.04 96.92 9.02 96.51 9.02 96.5 9.52 96.9 9.52 97.3 9.51 97.33 9.55 97.29 10.01 96.86 10 96.49 10 96.48 10.22 96.49 10.52 96.89 10.53 97.51 10.51 97.55 10.55"/><polygon class="cls-1" points="100.39 11.01 99.72 11.01 98.86 9.48 98.82 9.48 98.81 10.14 98.84 11.01 98.27 11.01 98.31 10.28 98.28 8.54 98.95 8.54 99.82 10.07 99.86 10.07 99.83 8.56 100.41 8.53 100.37 10.23 100.39 11.01"/><path class="cls-1" d="M355.71,389.48l-.11.51,0,0a.91.91,0,0,0-.51-.16.46.46,0,0,0-.4.18.86.86,0,0,0-.13.54c0,.54.19.81.56.81a1.22,1.22,0,0,0,.53-.13l.05,0-.05.51a1.56,1.56,0,0,1-.57.11,1.09,1.09,0,0,1-.87-.33,1.3,1.3,0,0,1-.3-.93,1.42,1.42,0,0,1,.31-1,1.2,1.2,0,0,1,.9-.33,1.61,1.61,0,0,1,.63.12" transform="translate(-252.7 -380.85)"/><polygon class="cls-1" points="104.32 11.01 103.7 11.01 103.74 10.28 103.7 8.54 104.33 8.54 104.3 10.22 104.32 11.01"/><path class="cls-1" d="M359.36,391.87l-.07-.36,0-.14h-.82l0,.1-.07.4h-.61l.79-2.48h.74l.72,2.48ZM358.9,390h0l-.28.94h.56Z" transform="translate(-252.7 -380.85)"/><polygon class="cls-1" points="69.3 13.93 69.7 13.94 70.13 13.93 70.16 13.96 70.13 14.28 69.67 14.27 69.29 14.27 69.29 14.55 69.31 15.38 68.89 15.38 68.92 14.59 68.89 12.77 70.33 12.77 70.36 12.8 70.33 13.13 69.72 13.11 69.31 13.11 69.3 13.93"/><path class="cls-1" d="M325.59,396.13v.05a1.79,1.79,0,0,1-.4.09l-.05,0c-.22-.37-.4-.69-.54-.94h-.43v.11l0,.82h-.43l0-.78,0-1.83h.88a.85.85,0,0,1,.6.19.71.71,0,0,1,.22.57.86.86,0,0,1-.14.47,1,1,0,0,1-.37.34c.18.29.4.61.64.94m-1-1.16a.53.53,0,0,0,.4-.56c0-.3-.16-.45-.49-.47l-.34,0,0,1Z" transform="translate(-252.7 -380.85)"/><path class="cls-1" d="M328,396.23l-.06-.29-.11-.36-.55,0-.5,0-.12.34-.06.31h-.42l.93-2.61h.48l.84,2.61Zm-.65-2.2h0l-.42,1.2h.82Z" transform="translate(-252.7 -380.85)"/><polygon class="cls-1" points="78.56 15.38 78.11 15.38 76.9 13.42 76.86 13.42 76.86 14.5 76.88 15.38 76.49 15.38 76.52 14.6 76.5 12.77 76.94 12.77 78.16 14.72 78.19 14.72 78.18 12.79 78.57 12.76 78.54 14.6 78.56 15.38"/><path class="cls-1" d="M334,393.77l-.08.37h0a.93.93,0,0,0-.59-.21.63.63,0,0,0-.54.24,1.14,1.14,0,0,0-.19.72,1.22,1.22,0,0,0,.19.75.62.62,0,0,0,.54.26,1,1,0,0,0,.64-.22l0,0,0,.38a1.46,1.46,0,0,1-.68.17,1,1,0,0,1-.84-.34,1.43,1.43,0,0,1-.3-1,1.54,1.54,0,0,1,.31-1,1.12,1.12,0,0,1,.87-.35,1.33,1.33,0,0,1,.7.18" transform="translate(-252.7 -380.85)"/><polygon class="cls-1" points="82.55 15.38 82.13 15.38 82.15 14.59 82.13 12.77 82.55 12.77 82.53 14.55 82.55 15.38"/><path class="cls-1" d="M337.71,393.72l-.07.38-.06,0a.92.92,0,0,0-.53-.2.48.48,0,0,0-.32.11.36.36,0,0,0-.11.25.3.3,0,0,0,.11.24,2.18,2.18,0,0,0,.37.21,2.64,2.64,0,0,1,.35.19.87.87,0,0,1,.24.23.58.58,0,0,1,.09.33.77.77,0,0,1-.11.39.87.87,0,0,1-.32.28,1.06,1.06,0,0,1-.48.1,1.53,1.53,0,0,1-.72-.17l.05-.42.05,0a1,1,0,0,0,.33.21.85.85,0,0,0,.33.07.48.48,0,0,0,.34-.11.34.34,0,0,0,.12-.26.29.29,0,0,0-.12-.25,1.62,1.62,0,0,0-.37-.22l-.35-.18a.92.92,0,0,1-.22-.22.57.57,0,0,1-.1-.34.7.7,0,0,1,.11-.38.8.8,0,0,1,.32-.28,1,1,0,0,1,.46-.1,1.49,1.49,0,0,1,.61.13" transform="translate(-252.7 -380.85)"/><path class="cls-1" d="M340.34,393.77l-.08.37h0a1,1,0,0,0-.59-.21.63.63,0,0,0-.54.24,1.14,1.14,0,0,0-.19.72,1.22,1.22,0,0,0,.19.75.62.62,0,0,0,.54.26,1,1,0,0,0,.64-.22l0,0,0,.38a1.47,1.47,0,0,1-.69.17,1,1,0,0,1-.83-.34,1.43,1.43,0,0,1-.3-1,1.54,1.54,0,0,1,.31-1,1.12,1.12,0,0,1,.87-.35,1.33,1.33,0,0,1,.7.18" transform="translate(-252.7 -380.85)"/><path class="cls-1" d="M342.92,393.92a1.42,1.42,0,0,1,.29.95,1.56,1.56,0,0,1-.31,1,1.08,1.08,0,0,1-.88.37,1,1,0,0,1-.82-.35,1.42,1.42,0,0,1-.29-1,1.52,1.52,0,0,1,.3-1,1.14,1.14,0,0,1,.89-.35,1,1,0,0,1,.82.33m-1.41.25a1.19,1.19,0,0,0-.18.73,1.36,1.36,0,0,0,.18.78.61.61,0,0,0,.54.25.64.64,0,0,0,.55-.24,1.22,1.22,0,0,0,.18-.74,1.3,1.3,0,0,0-.18-.77.61.61,0,0,0-.54-.25.64.64,0,0,0-.55.24" transform="translate(-252.7 -380.85)"/><path class="cls-1" d="M345.69,395.75a.81.81,0,0,1-.16.52,1.38,1.38,0,0,1-.57.38l-.14-.23v0a1.43,1.43,0,0,0,.38-.28.56.56,0,0,0,.11-.35v-.34l0-1.47h-.47l0,0,0-.3h.9l0,1.75Z" transform="translate(-252.7 -380.85)"/><path class="cls-1" d="M348.59,393.92a1.42,1.42,0,0,1,.29.95,1.56,1.56,0,0,1-.31,1,1.08,1.08,0,0,1-.88.37,1,1,0,0,1-.82-.35,1.42,1.42,0,0,1-.29-1,1.47,1.47,0,0,1,.31-1,1.1,1.1,0,0,1,.88-.35,1,1,0,0,1,.82.33m-1.41.25a1.19,1.19,0,0,0-.17.73,1.37,1.37,0,0,0,.17.78.61.61,0,0,0,.54.25.64.64,0,0,0,.55-.24,1.22,1.22,0,0,0,.18-.74,1.3,1.3,0,0,0-.18-.77.6.6,0,0,0-.54-.25.64.64,0,0,0-.55.24" transform="translate(-252.7 -380.85)"/><path class="cls-1" d="M351.12,393.72l-.07.38-.07,0a.87.87,0,0,0-.52-.2.46.46,0,0,0-.32.11.32.32,0,0,0-.11.25.28.28,0,0,0,.11.24,2.18,2.18,0,0,0,.37.21,3.48,3.48,0,0,1,.35.19.72.72,0,0,1,.23.23.52.52,0,0,1,.1.33.69.69,0,0,1-.12.39.73.73,0,0,1-.32.28,1,1,0,0,1-.47.1,1.59,1.59,0,0,1-.73-.17l.06-.42.05,0a1,1,0,0,0,.33.21.85.85,0,0,0,.33.07.44.44,0,0,0,.33-.11.32.32,0,0,0,.13-.26.29.29,0,0,0-.12-.25,1.89,1.89,0,0,0-.37-.22l-.35-.18a1,1,0,0,1-.23-.22.64.64,0,0,1-.09-.34.7.7,0,0,1,.11-.38.8.8,0,0,1,.32-.28.93.93,0,0,1,.45-.1,1.53,1.53,0,0,1,.62.13" transform="translate(-252.7 -380.85)"/><path class="cls-1" d="M353.63,395.91l0,.32h-1.53l0-.78,0-1.83h1.53l0,0,0,.32-.62,0h-.49v.76h.89l0,0,0,.32-.46,0h-.43v.82h.5l.62,0Zm-.2-3,0,0-.81.34-.05,0-.07-.18.8-.43h0Z" transform="translate(-252.7 -380.85)"/><path class="cls-1" d="M357.32,393.92a1.28,1.28,0,0,1,.3.91,1.55,1.55,0,0,1-.33,1.06,1.21,1.21,0,0,1-.94.37l-.86,0h0l0-.78,0-1.83h0l1,0a1.12,1.12,0,0,1,.85.32m-.33,1.75a1.17,1.17,0,0,0,.2-.74,1.25,1.25,0,0,0-.19-.75.68.68,0,0,0-.57-.24l-.52,0,0,1.45,0,.48.52,0a.67.67,0,0,0,.57-.25" transform="translate(-252.7 -380.85)"/><polygon class="cls-1" points="107.34 15.05 107.31 15.38 105.78 15.38 105.81 14.59 105.78 12.76 107.32 12.76 107.34 12.8 107.31 13.12 106.7 13.11 106.2 13.11 106.19 13.87 106.66 13.88 107.09 13.87 107.12 13.9 107.08 14.22 106.63 14.21 106.19 14.22 106.19 14.55 106.2 15.04 106.69 15.04 107.31 15.02 107.34 15.05"/><path class="cls-1" d="M326.56,398.16l-.34,1.61-.13.08a3.26,3.26,0,0,0-.6-.23,3,3,0,0,0-.63-.08,1,1,0,0,0-.88.36,2,2,0,0,0-.27,1.2,2.55,2.55,0,0,0,.31,1.43,1.08,1.08,0,0,0,1,.44,3.61,3.61,0,0,0,1.23-.21l.16.1-.16,1.6a4.54,4.54,0,0,1-1.39.19,3.19,3.19,0,0,1-2.43-.85,3.44,3.44,0,0,1-.81-2.47,3.51,3.51,0,0,1,.87-2.54,3.29,3.29,0,0,1,2.48-.9,4.83,4.83,0,0,1,1.62.27" transform="translate(-252.7 -380.85)"/><path class="cls-1" d="M331.61,404.54l-.18-1.08v0l-1,0-.82,0-.17,1.09h-2l2-6.54h2.42l1.77,6.54Zm-.93-4.73h-.12L330,402h1.12Z" transform="translate(-252.7 -380.85)"/><path class="cls-1" d="M339.15,404.54H335.3s.09-1.44.1-1.92c0-1.15-.1-4.62-.1-4.62h2l-.11,4.42,0,.46h1.91l.11,0Z" transform="translate(-252.7 -380.85)"/><path class="cls-1" d="M346,398.75a3.08,3.08,0,0,1,.77,2.25,3.72,3.72,0,0,1-.9,2.69,3.32,3.32,0,0,1-2.55.94c-.69,0-1.5,0-2.44-.09,0,0,.1-1.44.1-1.92,0-1.15-.1-4.62-.1-4.62l2.92,0a2.9,2.9,0,0,1,2.2.79m-1.58,4a2.46,2.46,0,0,0,.24-1.25,5.08,5.08,0,0,0-.1-1.16,1,1,0,0,0-.32-.61.88.88,0,0,0-.61-.19,6.28,6.28,0,0,0-.75,0l-.07,2.84,0,.63a8.27,8.27,0,0,0,.87.08.8.8,0,0,0,.72-.38" transform="translate(-252.7 -380.85)"/><path class="cls-1" d="M351.89,404.54l-.18-1.08v0l-1,0-.82,0-.17,1.09h-2l2-6.54h2.42l1.77,6.54Zm-.93-4.73h-.12l-.56,2.14h1.12Z" transform="translate(-252.7 -380.85)"/><path class="cls-1" d="M360,398.24l-.32,1.64-.28.12a4.9,4.9,0,0,0-.83-.41,2,2,0,0,0-.66-.15.68.68,0,0,0-.37.09.27.27,0,0,0-.13.24.4.4,0,0,0,.2.33,6.5,6.5,0,0,0,.69.36,8.54,8.54,0,0,1,.92.47,2.07,2.07,0,0,1,.63.59,1.6,1.6,0,0,1,.27.94,2,2,0,0,1-.33,1.12,2.44,2.44,0,0,1-1,.79,3.39,3.39,0,0,1-1.44.29,6.5,6.5,0,0,1-2.14-.38l.29-1.76.2-.12a4.35,4.35,0,0,0,1,.56,2.5,2.5,0,0,0,.88.21c.35,0,.53-.11.53-.34a.42.42,0,0,0-.22-.36,5.25,5.25,0,0,0-.69-.35c-.37-.17-.67-.32-.91-.46a2.17,2.17,0,0,1-.61-.6,1.63,1.63,0,0,1-.26-.94,2,2,0,0,1,.34-1.14,2.37,2.37,0,0,1,.95-.81,3.26,3.26,0,0,1,1.39-.29,5.18,5.18,0,0,1,1.88.36" transform="translate(-252.7 -380.85)"/><path class="cls-1" d="M281,407.25a1.38,1.38,0,1,0,1.38,1.38,1.38,1.38,0,0,0-1.38-1.38m0,2.63a1.26,1.26,0,1,1,1.25-1.25,1.25,1.25,0,0,1-1.25,1.25" transform="translate(-252.7 -380.85)"/><path class="cls-1" d="M281.65,409.28a.81.81,0,0,1-.2-.21l-.34-.47a.54.54,0,0,0,.31-.16.4.4,0,0,0,.1-.26.34.34,0,0,0-.09-.24.41.41,0,0,0-.21-.14,1.21,1.21,0,0,0-.38,0h-.6v0h.07a.15.15,0,0,1,.13.06s0,.09,0,.19v1.05a.53.53,0,0,1,0,.18.18.18,0,0,1-.15.07h-.06v0h.69v0h-.06a.2.2,0,0,1-.14-.05.4.4,0,0,1,0-.2v-.47h.17l.55.77h.44v0a.48.48,0,0,1-.22-.07m-.87-.73h-.07v-.68l.19,0a.32.32,0,0,1,.25.1.33.33,0,0,1,.1.24.32.32,0,0,1-.12.26.52.52,0,0,1-.35.1" transform="translate(-252.7 -380.85)"/><path class="cls-1" d="M273.75,389.44c.06-.69,1.06-.73.76-1.46a4.92,4.92,0,0,1-.87-.33.6.6,0,0,0-.49-.09,3.48,3.48,0,0,0-1.52,1.91.74.74,0,0,1-.17.33.08.08,0,0,1,0,.05,1.92,1.92,0,0,1-.14.32,1.2,1.2,0,0,1-.16.27,1.14,1.14,0,0,0-.33.59.48.48,0,0,0,.33.33l.16,0a.2.2,0,0,0,.14.06h0c.08,0,.11-.06.17-.1a.25.25,0,0,1,.2,0c.66-.63,1.19-1.16,1.81-1.79l.11-.1" transform="translate(-252.7 -380.85)"/><path class="cls-1" d="M260.24,401.23c-.24.16-.17.39,0,.59.49.23.82,1,1.58.59a15.56,15.56,0,0,0,1.82-2.15,3.41,3.41,0,0,0,.25-.37c.09-.15.17-.31.25-.45a1.09,1.09,0,0,0-.25-.23l-.25-.14c-1.39-.66-2.19,1.69-3.4,2.16" transform="translate(-252.7 -380.85)"/><path class="cls-1" d="M269.29,385.75c-1.68.54-.76,2.54-1,3.86l-.14.13c.07.23-.1.53.14.67.41.22.77-.21,1-.45l0,0c.3-1.26.65-2.58.85-3.81,0-.56-.59-.23-.85-.39h0" transform="translate(-252.7 -380.85)"/><path class="cls-1" d="M275.11,395.46a6.26,6.26,0,0,1-1.35-.23h-.11c-.36,0-.69,0-.82.36s.26.6.43,1l.39.2c.83.33,1.76.6,2.65.86.27,0,.76.06.93-.3s-.17-.83-.27-1.22a16.78,16.78,0,0,0-1.85-.63" transform="translate(-252.7 -380.85)"/><path class="cls-1" d="M262.51,392.42a5.5,5.5,0,0,0-1.65-1c-.73-.3-1.49-1.16-2.25-.56-.66,2.42,2.41,1.58,3.53,2.81.28.07.51.33.73.07.1-.57-.13-.83-.36-1.3" transform="translate(-252.7 -380.85)"/><path class="cls-1" d="M263.63,388.48c.08.14.16.27.25.4a23.38,23.38,0,0,0,1.61,2c.22.06.56.13.73,0,0,0,0,0,0,0a1.12,1.12,0,0,0,0-1.21,12.85,12.85,0,0,1-.84-1.21c-.59-.6-.53-1.72-1.45-1.91h-.05l-.25.15a1.43,1.43,0,0,0-.49.83,6.4,6.4,0,0,0,.49,1" transform="translate(-252.7 -380.85)"/><path class="cls-1" d="M262.38,397.49c.3-.13.23-.43.06-.67a5.76,5.76,0,0,0-4.43.07,1,1,0,0,0,0,.17v.1a1.27,1.27,0,0,0,.45.89c1.49.26,2.58-.46,3.94-.56" transform="translate(-252.7 -380.85)"/><path class="cls-1" d="M271.47,399.47a1.29,1.29,0,0,0,.17.33,15.46,15.46,0,0,0,2,1.58,1.85,1.85,0,0,1,.37.37c.4.23.83-.14,1.16-.43a1.11,1.11,0,0,0-.13-1,4.44,4.44,0,0,0-1.4-.93,13.8,13.8,0,0,1-2-1.09l0,0a2.28,2.28,0,0,0-.17.4.5.5,0,0,0,0,.12,1,1,0,0,0,0,.48s0,.07,0,.1" transform="translate(-252.7 -380.85)"/><path class="cls-1" d="M273.75,392.32h-.1a1.72,1.72,0,0,0-.89.66c.23.33.56.33.89.43v0a31.48,31.48,0,0,1,3.18-.83c.23-.23.56-.47.46-.73a1.67,1.67,0,0,0-.93-1.16c-.66.23-1,.76-1.69.89-.23.37-.85.37-.92.77" transform="translate(-252.7 -380.85)"/><path class="cls-1" d="M271,402.77c-.58-.78-.34-2.48-1.73-2.61h0c-1.23.47,0,1.59-.07,2.25a1.69,1.69,0,0,1,.11.27,5.8,5.8,0,0,0,.75,1.94c.54.16.79-.16,1.09-.51l.2-.22a1.44,1.44,0,0,0-.2-.95l-.11-.17" transform="translate(-252.7 -380.85)"/><path class="cls-1" d="M266.23,400.61c-.41.16-.51.49-.74.85-.16.19-.1.55-.29.72l-.07.43a4,4,0,0,0-.73,1.81c.23.72,1.43.58,1.83,0a.77.77,0,0,0,.12-.33,9.84,9.84,0,0,0,.77-3.24,1.82,1.82,0,0,0-.87-.24s0,0,0,0" transform="translate(-252.7 -380.85)"/><path class="cls-1" d="M255.46,398.59a.74.74,0,0,0-.42-.18,2.35,2.35,0,0,0-.56.09l-1,.28a.47.47,0,0,1-.26,0,.24.24,0,0,1-.18-.18l0-.08-.07,0,.25.83.06,0,0-.09a.27.27,0,0,1,0-.22c0-.05.12-.09.26-.14l.95-.27a1.34,1.34,0,0,1,.56-.09.53.53,0,0,1,.33.17,1,1,0,0,1,.22.38.72.72,0,0,1,0,.32.53.53,0,0,1-.1.24.84.84,0,0,1-.25.17L255,400l-1,.3a.63.63,0,0,1-.27,0,.26.26,0,0,1-.16-.18l0-.1-.06,0,.3,1,.07,0,0-.09a.29.29,0,0,1,0-.21.5.5,0,0,1,.27-.15l.92-.27a2.44,2.44,0,0,0,.56-.22.77.77,0,0,0,.27-.39,1.34,1.34,0,0,0-.34-1.14" transform="translate(-252.7 -380.85)"/><path class="cls-1" d="M253,397.61a1.35,1.35,0,0,1,.15-.17l1.7-.1a.64.64,0,0,1,.27,0,.25.25,0,0,1,.1.22v.08h.07l-.06-.85h-.06v.09a.24.24,0,0,1-.06.21.48.48,0,0,1-.28.07l-1.5.09,1.86-1.73v-.07l-2.06.13a.49.49,0,0,1-.27,0,.24.24,0,0,1-.1-.21v-.09h-.07l.06.84h.07v-.08a.25.25,0,0,1,.06-.22.48.48,0,0,1,.28-.07l1.41-.09-1.74,1.61,0,.66h.07a.84.84,0,0,1,0-.16.54.54,0,0,1,.07-.17" transform="translate(-252.7 -380.85)"/><path class="cls-1" d="M252.85,394.56a.64.64,0,0,1,.06-.16s.06-.06.09-.06a.49.49,0,0,1,.25,0l1.57.16a.56.56,0,0,1,.27.07.28.28,0,0,1,.07.23l0,.09h.07l.11-1h-.07v.09a.25.25,0,0,1-.06.16.09.09,0,0,1-.08.06.49.49,0,0,1-.25,0l-1.57-.15a.56.56,0,0,1-.27-.08.25.25,0,0,1-.07-.23v-.08h-.07l-.1,1h.06Z" transform="translate(-252.7 -380.85)"/><path class="cls-1" d="M253.09,392.83a.23.23,0,0,1,.11-.08.59.59,0,0,1,.22,0l2.27-.33,0-.06-1.78-1.38a.69.69,0,0,1-.22-.24.44.44,0,0,1,0-.21h-.07l-.2.72.07,0a0,0,0,0,1,0,0,.39.39,0,0,1,.11-.15.13.13,0,0,1,.11,0,1.28,1.28,0,0,1,.26.16l1.21.94-1.55.22a.69.69,0,0,1-.29,0,.14.14,0,0,1-.09-.08.51.51,0,0,1,0-.22l-.06,0-.27,1H253a.48.48,0,0,1,.09-.16" transform="translate(-252.7 -380.85)"/><path class="cls-1" d="M256.5,388.78l0,.07a1.27,1.27,0,0,1,.19.36.38.38,0,0,1,0,.21,1.19,1.19,0,0,1-.11.28l-.19.37c0,.06-.06.1-.09.11a.08.08,0,0,1-.07,0l-.18-.08-.71-.37.24-.47a.44.44,0,0,1,.14-.19.24.24,0,0,1,.14,0,.81.81,0,0,1,.22.06l0-.06-.75-.39,0,.06a.31.31,0,0,1,.14.5l-.25.48-.86-.44.31-.6a.73.73,0,0,1,.14-.21.26.26,0,0,1,.16-.07.64.64,0,0,1,.27.05l0-.07-.49-.22-.87,1.67.06,0,0-.07a.29.29,0,0,1,.17-.16.56.56,0,0,1,.27.09l1.41.73a.55.55,0,0,1,.2.13.14.14,0,0,1,0,.11.45.45,0,0,1,0,.16l0,.08.05,0,.87-1.68Z" transform="translate(-252.7 -380.85)"/><path class="cls-1" d="M255.38,387.29a.24.24,0,0,1,.19-.11c.05,0,.13,0,.25.14l1.24,1a.57.57,0,0,1,.18.19.25.25,0,0,1-.06.23l-.06.08.05,0,.66-.82-.05,0-.06.08a.26.26,0,0,1-.19.11.6.6,0,0,1-.26-.14l-.55-.45,0,0,0,0,.09-.12,1.41.07.41-.5-.05,0a.69.69,0,0,1-.29.19,1.07,1.07,0,0,1-.43,0l-.87,0a.83.83,0,0,0,.11-.5.57.57,0,0,0-.22-.36.5.5,0,0,0-.36-.13.66.66,0,0,0-.36.11,2.23,2.23,0,0,0-.4.41l-.56.7,0,0Zm.61-.65a.49.49,0,0,1,.35-.2.47.47,0,0,1,.38.12.49.49,0,0,1,.19.38.81.81,0,0,1-.22.5l0,0,0,0-.79-.64a1.25,1.25,0,0,1,.15-.24" transform="translate(-252.7 -380.85)"/><path class="cls-1" d="M258,385.52a.73.73,0,0,0,.3.05,4.2,4.2,0,0,0,.52-.08l.44-.07a.54.54,0,0,1,.23,0,.38.38,0,0,1,.16.11.35.35,0,0,1,.08.3.52.52,0,0,1-.19.32.73.73,0,0,1-.33.16.62.62,0,0,1-.33,0,1.48,1.48,0,0,1-.35-.22l-.05,0,.54.64.05,0a.24.24,0,0,1,0-.11.09.09,0,0,1,0-.07l.21-.1.22-.1a.61.61,0,0,0,.16-.12.74.74,0,0,0,.3-.51.65.65,0,0,0-.38-.68.94.94,0,0,0-.3-.05l-.54.09a1.91,1.91,0,0,1-.64.07.29.29,0,0,1-.19-.11.31.31,0,0,1-.07-.27.41.41,0,0,1,.16-.29.71.71,0,0,1,.3-.15.61.61,0,0,1,.33,0,1.08,1.08,0,0,1,.34.21l.05,0-.55-.64-.05,0a.24.24,0,0,1,0,.12.16.16,0,0,1,0,.07l-.14.06a1,1,0,0,0-.38.19.74.74,0,0,0-.27.48.64.64,0,0,0,.14.48.56.56,0,0,0,.24.16" transform="translate(-252.7 -380.85)"/><path class="cls-1" d="M259.31,383.45a.28.28,0,0,1,.16-.05.16.16,0,0,1,.1,0,.82.82,0,0,1,.15.2l.85,1.34a.68.68,0,0,1,.11.26.31.31,0,0,1-.14.19l-.08,0,0,.06.89-.56,0-.05-.07,0a.34.34,0,0,1-.17.05l-.1,0a.62.62,0,0,1-.15-.2l-.85-1.33a.77.77,0,0,1-.11-.27A.31.31,0,0,1,260,383l.08,0,0-.06-.88.56,0,.06Z" transform="translate(-252.7 -380.85)"/><path class="cls-1" d="M260.75,382.55a.28.28,0,0,1,.22,0,.55.55,0,0,1,.16.25l.61,1.46a.54.54,0,0,1,.06.26c0,.08-.07.13-.16.17l-.09,0,0,.06,1-.42a1.34,1.34,0,0,0,.83-.76,1.25,1.25,0,0,0,0-.91,1.37,1.37,0,0,0-.42-.55,1.08,1.08,0,0,0-.59-.21,2.24,2.24,0,0,0-.81.21l-.92.38,0,.07Zm.93-.31a.92.92,0,0,1,.76,0,1.09,1.09,0,0,1,.57.63,1.12,1.12,0,0,1,0,.84.89.89,0,0,1-.52.54,1.85,1.85,0,0,1-.38.1l-.79-1.92a1.22,1.22,0,0,1,.32-.19" transform="translate(-252.7 -380.85)"/><path class="cls-1" d="M264.87,383.62v-.07a.4.4,0,0,1-.24,0,.09.09,0,0,1-.06-.08.35.35,0,0,1,0-.22l.1-.41.93-.16.21.32a.89.89,0,0,1,.11.23.12.12,0,0,1,0,.11s-.08.06-.18.08v.07l.95-.16v-.07a.4.4,0,0,1-.25,0,.9.9,0,0,1-.23-.28L265,381.06h-.06l-.5,2.12a1.31,1.31,0,0,1-.15.39.35.35,0,0,1-.18.1v.06Zm.09-2,.58.9-.83.15Z" transform="translate(-252.7 -380.85)"/><path class="cls-1" d="M269.05,383a1.24,1.24,0,0,0,.36-.83,1.4,1.4,0,0,0-.14-.69,1,1,0,0,0-.44-.44,2.05,2.05,0,0,0-.83-.16l-1-.06v.07h.09a.29.29,0,0,1,.2.09.52.52,0,0,1,0,.29l-.09,1.58a.5.5,0,0,1-.05.27.24.24,0,0,1-.23.08h-.09v.06l1.09.07a1.38,1.38,0,0,0,1.08-.33m-1.46.13.11-2.08a1.23,1.23,0,0,1,.37,0,.88.88,0,0,1,.69.33,1.06,1.06,0,0,1,.23.81,1.09,1.09,0,0,1-.31.78.93.93,0,0,1-.71.26,2.41,2.41,0,0,1-.38-.07" transform="translate(-252.7 -380.85)"/><path class="cls-1" d="M272.79,384.09a1.23,1.23,0,0,0,.59-.69,1.19,1.19,0,0,0,.07-.69,1,1,0,0,0-.28-.55,2.23,2.23,0,0,0-.74-.41l-.93-.35,0,.06.08,0a.29.29,0,0,1,.17.15.51.51,0,0,1-.05.29l-.56,1.48a.54.54,0,0,1-.13.23.25.25,0,0,1-.24,0l-.09,0,0,.07,1,.39a1.38,1.38,0,0,0,1.13,0m-.7-2.27a1.82,1.82,0,0,1,.37.09.89.89,0,0,1,.55.52,1.07,1.07,0,0,1,0,.84,1.12,1.12,0,0,1-.54.65.89.89,0,0,1-.75,0,1.46,1.46,0,0,1-.35-.18Z" transform="translate(-252.7 -380.85)"/><path class="cls-1" d="M273.26,384.66l0,0,1.59,1,.51-.4-.06,0a1.24,1.24,0,0,1-.38.16.37.37,0,0,1-.21,0,1.16,1.16,0,0,1-.27-.14l-.35-.22a.3.3,0,0,1-.1-.09.12.12,0,0,1,0-.08l.1-.18.43-.67.46.29a.66.66,0,0,1,.17.15.19.19,0,0,1,0,.14.74.74,0,0,1-.08.22l.06,0,.46-.72-.06,0a.38.38,0,0,1-.24.18.37.37,0,0,1-.27-.09l-.46-.3.53-.81.56.36a1,1,0,0,1,.2.16.29.29,0,0,1,.06.17.83.83,0,0,1-.08.27l.06,0,.27-.47-1.59-1,0,.06.07.05a.28.28,0,0,1,.14.17c0,.05,0,.14-.11.27l-.86,1.34a.68.68,0,0,1-.15.19.2.2,0,0,1-.11,0,.43.43,0,0,1-.16-.05Z" transform="translate(-252.7 -380.85)"/><path class="cls-1" d="M277.25,388a1.24,1.24,0,0,0,.64,0v-.07a1.25,1.25,0,0,1-.57,0,.84.84,0,0,1-.36-.25,1.05,1.05,0,0,1-.22-.45.84.84,0,0,1,.07-.49,1.49,1.49,0,0,1,.36-.45,1.93,1.93,0,0,1,.58-.37.79.79,0,0,1,.5,0,.8.8,0,0,1,.39.24.85.85,0,0,1,.2.49,1,1,0,0,1-.19.59l0,.05.59-.6,0,0a.21.21,0,0,1-.15,0,.1.1,0,0,1-.08,0,.37.37,0,0,1,0-.1,1,1,0,0,0-.25-.48,1.23,1.23,0,0,0-.54-.36,1.2,1.2,0,0,0-.65,0,1.42,1.42,0,0,0-.62.32,1.28,1.28,0,0,0-.42.71,1.08,1.08,0,0,0,.28,1,1,1,0,0,0,.5.34" transform="translate(-252.7 -380.85)"/><path class="cls-1" d="M278.89,390.57a1,1,0,0,1,.19-.32l1.38-1.73,0,0-2.18.22a1.59,1.59,0,0,1-.4,0,.5.5,0,0,1-.16-.15l-.06,0,.37.67.07,0A.38.38,0,0,1,278,389a.15.15,0,0,1,.06-.09.71.71,0,0,1,.22-.05l.42,0,.45.83-.24.3a.6.6,0,0,1-.18.18.16.16,0,0,1-.12,0,.4.4,0,0,1-.13-.15l-.06,0,.47.84.05,0a.43.43,0,0,1,0-.24m-.06-1.79,1.07-.1-.67.84Z" transform="translate(-252.7 -380.85)"/><path class="cls-1" d="M280.18,392.87v-.06a1.38,1.38,0,0,1-.37-.08.53.53,0,0,1-.2-.16,1.14,1.14,0,0,1-.15-.37l-.06-.16a2,2,0,0,1-.06-.28.11.11,0,0,1,0-.08.56.56,0,0,1,.19-.09l1.47-.44a.75.75,0,0,1,.27,0,.19.19,0,0,1,.13.07.75.75,0,0,1,.11.25l.07,0-.32-1.06-.07,0,0,.09a.27.27,0,0,1,0,.22c0,.05-.11.09-.26.14l-1.51.45a.6.6,0,0,1-.26,0,.23.23,0,0,1-.16-.18l0-.09-.06,0,.54,1.82Z" transform="translate(-252.7 -380.85)"/><path class="cls-1" d="M279.8,393.6a.25.25,0,0,1-.11-.22v-.09h-.07l.1,1.09a1.37,1.37,0,0,0,.47,1,1.2,1.2,0,0,0,.88.23,1.19,1.19,0,0,0,.65-.23.94.94,0,0,0,.37-.49,2.14,2.14,0,0,0,.05-.84l-.08-1H282v.1a.22.22,0,0,1-.07.21s-.12.06-.27.08l-1.58.13a.71.71,0,0,1-.27,0m2.12.2a1.39,1.39,0,0,1,.08.36.9.9,0,0,1-.23.73,1.1,1.1,0,0,1-.77.35,1.12,1.12,0,0,1-.82-.21.91.91,0,0,1-.35-.67,1.75,1.75,0,0,1,0-.38Z" transform="translate(-252.7 -380.85)"/><path class="cls-1" d="M279.61,397.65l-.14,1h.07a.42.42,0,0,1,.11-.22.85.85,0,0,1,.35-.14l2.13-.57v-.06l-1.88-1.13a1.21,1.21,0,0,1-.32-.25.31.31,0,0,1,0-.2h-.07l-.11.76h.07a.42.42,0,0,1,.09-.22.13.13,0,0,1,.1,0,.65.65,0,0,1,.2.09l.37.22-.13.94-.37.09a.57.57,0,0,1-.26,0,.11.11,0,0,1-.09-.07s0-.1,0-.2Zm1.06-.73.92.56-1,.27Z" transform="translate(-252.7 -380.85)"/><path class="cls-1" d="M280,400.61a3.07,3.07,0,0,0,.42-.34,2,2,0,0,1,.52-.39.28.28,0,0,1,.22,0,.33.33,0,0,1,.2.2.42.42,0,0,1,0,.33.64.64,0,0,1-.19.27.61.61,0,0,1-.3.15.91.91,0,0,1-.4,0l0,.06.8.28,0-.06a.19.19,0,0,1-.09-.09.11.11,0,0,1,0-.08s0-.07.09-.12a.92.92,0,0,0,.22-.36.7.7,0,0,0,0-.55.6.6,0,0,0-.36-.34.67.67,0,0,0-.28,0,.69.69,0,0,0-.29.11,4.15,4.15,0,0,0-.41.33l-.34.29a.6.6,0,0,1-.21.08.39.39,0,0,1-.19,0,.36.36,0,0,1-.23-.22.53.53,0,0,1,0-.37.79.79,0,0,1,.2-.31.65.65,0,0,1,.29-.16,1.21,1.21,0,0,1,.41,0l0-.07-.79-.28,0,.07a.17.17,0,0,1,.09.07.11.11,0,0,1,0,.08,1.15,1.15,0,0,1-.12.19,1.26,1.26,0,0,0-.14.2,1.5,1.5,0,0,0-.09.18.8.8,0,0,0,0,.59.62.62,0,0,0,.38.36.7.7,0,0,0,.29,0,.61.61,0,0,0,.28-.11" transform="translate(-252.7 -380.85)"/><path class="cls-1" d="M257.66,404.53l0,0a.19.19,0,0,1,.07.12.31.31,0,0,1-.09.15l-.64.73c-.06.06-.09.1-.12.11a.13.13,0,0,1-.14-.05l0,0,0,0,.87.76.36-.22,0,0a1,1,0,0,1-.22.08.41.41,0,0,1-.16,0,1.08,1.08,0,0,1-.19-.14l-.09-.07-.12-.12a.13.13,0,0,1,0-.06.37.37,0,0,1,.07-.1l.62-.71a.46.46,0,0,1,.12-.11.1.1,0,0,1,.09,0,.46.46,0,0,1,.14.1l0,0-.51-.44Z" transform="translate(-252.7 -380.85)"/><path class="cls-1" d="M260,406.48a.16.16,0,0,1,.16,0l0,0,0,0-.43-.32,0,0,0,0a.17.17,0,0,1,.08.11.44.44,0,0,1-.08.16l-.36.49a.87.87,0,0,1-.24.24.33.33,0,0,1-.22,0,.49.49,0,0,1-.25-.1.44.44,0,0,1-.13-.15.31.31,0,0,1,0-.15.38.38,0,0,1,.06-.18.71.71,0,0,1,.11-.17l.38-.52a.32.32,0,0,1,.12-.12.12.12,0,0,1,.14,0l0,0,0,0-.52-.38,0,0,.05,0a.12.12,0,0,1,.07.1.3.3,0,0,1-.08.17l-.34.47a1.81,1.81,0,0,0-.2.31.51.51,0,0,0,0,.3.81.81,0,0,0,.59.43.47.47,0,0,0,.27-.07,1.16,1.16,0,0,0,.24-.25l.36-.49a.44.44,0,0,1,.11-.12" transform="translate(-252.7 -380.85)"/><path class="cls-1" d="M261.77,407.76c0-.07.07-.12.1-.13a.15.15,0,0,1,.14,0l.05,0,0,0-.37-.21-1,.74.13-1.28-.37-.22,0,0a.38.38,0,0,1,.11.08.16.16,0,0,1,0,.08l-.06.13-.49.85a.33.33,0,0,1-.1.12.16.16,0,0,1-.15,0l-.05,0v0l.44.27,0,0,0,0a.22.22,0,0,1-.09-.11.46.46,0,0,1,.06-.16l.51-.87-.14,1.38,0,0,1.14-.8-.51.87c0,.07-.07.11-.1.12a.14.14,0,0,1-.15,0l0,0,0,0,.55.32,0,0-.05,0a.17.17,0,0,1-.09-.1.43.43,0,0,1,.06-.17Z" transform="translate(-252.7 -380.85)"/><path class="cls-1" d="M262.91,408.05l0,0,0,0-.59-.26v0l.05,0a.24.24,0,0,1,.08.06.14.14,0,0,1,0,.06.5.5,0,0,1,0,.15l-.4.88a.4.4,0,0,1-.09.14.19.19,0,0,1-.15,0l0,0v0l.58.27v0l0,0a.27.27,0,0,1-.08-.07.09.09,0,0,1,0-.06.39.39,0,0,1,0-.14l.4-.89a.35.35,0,0,1,.1-.14.14.14,0,0,1,.14,0" transform="translate(-252.7 -380.85)"/><path class="cls-1" d="M264.75,408.67l-.49-.16,0,0h.05a.17.17,0,0,1,.11.09.33.33,0,0,1,0,.17l-.27.82-.51-1.36-.39-.13v0l.09.05a.19.19,0,0,1,.08.07.64.64,0,0,1,.06.12l-.33,1c0,.08,0,.13-.07.14a.16.16,0,0,1-.15,0h-.05v0l.49.17,0,0-.06,0a.2.2,0,0,1-.11-.09.32.32,0,0,1,0-.17l.29-.87L264,410l0,0,.41-1.2a.24.24,0,0,1,.07-.14.13.13,0,0,1,.14,0l.06,0Z" transform="translate(-252.7 -380.85)"/><path class="cls-1" d="M266.05,410.16l-.28-1.32h0L265,410a.89.89,0,0,1-.16.19s-.06,0-.13,0v0l.47.09v0a.31.31,0,0,1-.13-.06.1.1,0,0,1,0-.07l.06-.12.14-.21.58.1,0,.23a.56.56,0,0,1,0,.16.1.1,0,0,1,0,.05s-.07,0-.13,0v0l.57.11v0a.24.24,0,0,1-.13-.08.56.56,0,0,1-.08-.21m-.79-.45.37-.54.14.64Z" transform="translate(-252.7 -380.85)"/><path class="cls-1" d="M271.26,409.55a.33.33,0,0,0-.15-.11,1.76,1.76,0,0,0-.32-.1,1.35,1.35,0,0,1-.37-.14.19.19,0,0,1-.07-.11.2.2,0,0,1,0-.17.3.3,0,0,1,.17-.12.5.5,0,0,1,.21,0,.42.42,0,0,1,.17.1.68.68,0,0,1,.12.21h0l-.12-.5h0s0,.06,0,.07,0,0,0,0-.05,0-.09,0a.74.74,0,0,0-.26,0,.46.46,0,0,0-.28.18.41.41,0,0,0-.06.3.8.8,0,0,0,.08.16.37.37,0,0,0,.16.1,1.2,1.2,0,0,0,.3.11l.26.08a.36.36,0,0,1,.12.08.27.27,0,0,1,.06.1.26.26,0,0,1,0,.19.31.31,0,0,1-.2.12.41.41,0,0,1-.22,0,.51.51,0,0,1-.18-.09,1.27,1.27,0,0,1-.13-.22h0l.12.5h0s0-.06,0-.07,0,0,0,0h.28l.12,0a.53.53,0,0,0,.31-.2.4.4,0,0,0,.06-.32.44.44,0,0,0-.08-.15" transform="translate(-252.7 -380.85)"/><path class="cls-1" d="M272.49,408.32a.46.46,0,0,0-.23-.06.84.84,0,0,0-.31.07l-.52.19,0,0,.05,0a.17.17,0,0,1,.14,0,.24.24,0,0,1,.08.15l.34.91a.28.28,0,0,1,0,.16.13.13,0,0,1-.1.1l-.06,0,0,0,.6-.22v0l-.06,0a.17.17,0,0,1-.14,0,.36.36,0,0,1-.08-.16l-.15-.4.13,0,.12,0a.48.48,0,0,0,.27-.23.37.37,0,0,0,0-.31.38.38,0,0,0-.15-.2m-.07.55a.25.25,0,0,1-.16.14l-.07,0-.1,0-.22-.58a.33.33,0,0,1,.13-.07.25.25,0,0,1,.17,0,.28.28,0,0,1,.15.08.4.4,0,0,1,.1.15.36.36,0,0,1,0,.25" transform="translate(-252.7 -380.85)"/><path class="cls-1" d="M274.53,408.71a.55.55,0,0,1-.19-.12l-1-.89,0,0,.07,1.33a.85.85,0,0,1,0,.25.26.26,0,0,1-.09.1l0,0,.42-.21,0,0a.22.22,0,0,1-.14,0,.09.09,0,0,1-.06,0,.39.39,0,0,1,0-.13l0-.26.52-.26.18.16a.57.57,0,0,1,.11.12,0,0,0,0,1,0,.06s0,.05-.09.08l0,0,.53-.26,0,0a.2.2,0,0,1-.15,0m-1.09,0,0-.66.49.43Z" transform="translate(-252.7 -380.85)"/><path class="cls-1" d="M276.11,407.71a.67.67,0,0,1-.26-.07l-.49-.18a.52.52,0,0,0,.15-.28.37.37,0,0,0-.06-.25.32.32,0,0,0-.18-.14.45.45,0,0,0-.23,0,1.55,1.55,0,0,0-.32.16l-.45.3,0,0,0,0a.17.17,0,0,1,.13,0s.07.06.12.13l.53.81a.35.35,0,0,1,.07.15.14.14,0,0,1-.08.12l-.05,0,0,0,.53-.35,0,0-.05,0a.17.17,0,0,1-.13,0s-.07-.05-.12-.13l-.24-.37,0,0s0,0,0,0l.08,0,.81.31.33-.22,0,0a.41.41,0,0,1-.2.06m-.81-.37a.56.56,0,0,1-.22.25l0,0,0,0-.34-.53.13-.11a.33.33,0,0,1,.25-.05.35.35,0,0,1,.2.14.34.34,0,0,1,0,.26" transform="translate(-252.7 -380.85)"/><path class="cls-1" d="M277.28,406a.17.17,0,0,1,.06-.12l0,0,0,0-.44.37,0,0a.17.17,0,0,1,.11-.06.06.06,0,0,1,.07,0s.06,0,.11.1l.28.33a.64.64,0,0,1-.08.14.43.43,0,0,1-.11.12.47.47,0,0,1-.26.11.59.59,0,0,1-.34-.05.94.94,0,0,1-.31-.26.73.73,0,0,1-.19-.42.48.48,0,0,1,.19-.46.49.49,0,0,1,.34-.12.81.81,0,0,1,.29.11l0,0-.33-.34,0,0s0,.06,0,.08l0,0-.08,0-.18.07-.12.09a.76.76,0,0,0-.24.33.72.72,0,0,0,0,.44.81.81,0,0,0,.16.35.7.7,0,0,0,.44.26.77.77,0,0,0,.68-.2,1.26,1.26,0,0,0,.2-.2,1.36,1.36,0,0,0,.13-.24l-.3-.35a.51.51,0,0,1-.09-.14" transform="translate(-252.7 -380.85)"/><path class="cls-1" d="M278.12,404.3a.71.71,0,0,0-.51.22.72.72,0,0,0-.2.5.8.8,0,0,0,.26.58.82.82,0,0,0,.56.23.71.71,0,0,0,.51-.23.7.7,0,0,0,.19-.53.81.81,0,0,0-.26-.55.8.8,0,0,0-.55-.22m.56,1.25a.38.38,0,0,1-.33.13,1,1,0,0,1-.51-.27.84.84,0,0,1-.29-.48.37.37,0,0,1,.11-.34.4.4,0,0,1,.33-.14.86.86,0,0,1,.53.28.81.81,0,0,1,.28.45.41.41,0,0,1-.12.37" transform="translate(-252.7 -380.85)"/><path class="cls-1" d="M271.63,393.05a1.2,1.2,0,0,0-.17-.23l0,0c-.06-.08-.14-.14-.2-.23l-.1-.09a5.19,5.19,0,0,0-1.84-1.15,2.78,2.78,0,0,0-.77-.05,3.49,3.49,0,0,0-.76-.09,2.81,2.81,0,0,0-.65,0,4,4,0,0,0-.9.23c-.54.2-1.07.46-1.6.69a5,5,0,0,0-.74.88l-.25.41a4.14,4.14,0,0,0-.45,2.12h0a13.18,13.18,0,0,0,.5,2.44,2.51,2.51,0,0,0,.24.46,1.56,1.56,0,0,0,.16.2,3,3,0,0,0,2.19,1.23,4.49,4.49,0,0,0,.9.06c.21,0,.43,0,.64,0a8,8,0,0,0,1.26-.23l.28,0a3.13,3.13,0,0,0,1.84-1.3l.3-.42,0,0c.07-.07.1-.17.17-.24l.62-.88a4.09,4.09,0,0,0-.63-3.71m-.16,2.74s0,.06,0,.08a2,2,0,0,0-.2.68l-.09.23a4.23,4.23,0,0,1-1.84,1.9,3.81,3.81,0,0,1-1.54.39h-.16a2,2,0,0,1-.48,0,2.78,2.78,0,0,1-.9-.23,5.23,5.23,0,0,1-1.27-.81,4.21,4.21,0,0,1-.2-4.27,3.64,3.64,0,0,1,1.46-1.34,3.16,3.16,0,0,1,.9-.29,3.91,3.91,0,0,1,.49,0h.16a4.23,4.23,0,0,1,1.53.28,4.1,4.1,0,0,1,1.51,1c.1.25.22.49.33.74a2.69,2.69,0,0,1,.26,1,.21.21,0,0,1,0,.06.16.16,0,0,1,0,.08.6.6,0,0,1,0,.49" transform="translate(-252.7 -380.85)"/><path class="cls-1" d="M270.61,394.3a3,3,0,0,0-1.31-1.25l-.41-.2a4.4,4.4,0,0,0-1.12-.2,3.5,3.5,0,0,0-.65,0,1.83,1.83,0,0,0-.71.3,1.18,1.18,0,0,1-.19.11,3.32,3.32,0,0,0-1.4,2.15c-.45.66.27,1.19.37,1.72a4.72,4.72,0,0,0,1,1.14,2.19,2.19,0,0,0,.9.45,1.93,1.93,0,0,0,.64,0,3,3,0,0,0,1.54-.49,5.48,5.48,0,0,0,1.3-1.33c0-.21,0-.37.2-.57,0-.53.1-.93-.13-1.29.23-.23-.1-.33-.07-.6m-.86,2a2.39,2.39,0,0,1-.45.62,1.87,1.87,0,0,1-1.4.6l-.13,0-.64-.12-.28,0a4.39,4.39,0,0,1-.62-.76,2.57,2.57,0,0,1-.48-1.59,5.58,5.58,0,0,1,.47-.9,1.84,1.84,0,0,1,.9-.58,2.35,2.35,0,0,1,.65,0,2.93,2.93,0,0,1,1.53.45h0a2.39,2.39,0,0,1,.43,2.39" transform="translate(-252.7 -380.85)"/><path class="cls-1" d="M269.13,394.5a1.83,1.83,0,0,0-1.36-.43h-.07a5.39,5.39,0,0,0-.58.3,1.53,1.53,0,0,0-.64.67c.11.59.16,1.26.65,1.58a1.46,1.46,0,0,0,.28.14,1.51,1.51,0,0,0,.36.06,1.61,1.61,0,0,0,1.26-.56,4.53,4.53,0,0,0,.27-.54,1.11,1.11,0,0,0,.1-.69l-.1-.17a.76.76,0,0,1-.17-.36M268,396c-.17.07-.24,0-.27-.07s-.1-.17-.16-.17c-.14-.16-.07-.39-.07-.55s.13-.17.23-.17a.52.52,0,0,1,.56.3c.1.3-.16.46-.29.66" transform="translate(-252.7 -380.85)"/><rect class="cls-1" x="36.75" y="2.22" width="0.49" height="25.19"/></svg>