<svg id="Capa_1" data-name="Capa 1" xmlns="http://www.w3.org/2000/svg" xmlns:xlink="http://www.w3.org/1999/xlink" viewBox="0 0 648.42 125.5"><defs><style>.cls-1{fill:none;}.cls-2{clip-path:url(#clip-path);}.cls-3{opacity:0.24;}.cls-4{opacity:0.3;}.cls-5{fill:#fff;}</style><clipPath id="clip-path" transform="translate(-67.95 -402.12)"><rect class="cls-1" x="-103.58" y="263.72" width="666.35" height="192"/></clipPath></defs><g class="cls-2"><g class="cls-3"><g class="cls-4"><polygon class="cls-5" points="101.06 20.38 76.29 20.38 76.25 20.35 55.53 5.8 55.7 5.55 76.39 20.08 100.97 20.08 129.57 0 291.76 0 291.8 0.03 319.24 19.29 516.96 19.29 516.96 19.59 319.15 19.59 319.11 19.56 291.66 0.3 129.67 0.3 101.06 20.38"/><circle class="cls-5" cx="516.91" cy="19.44" r="1.11"/><path class="cls-5" d="M124.24,406.92a1.11,1.11,0,1,0-1.27,1.82,1.11,1.11,0,1,0,1.27-1.82Z" transform="translate(-67.95 -402.12)"/><polygon class="cls-5" points="609.23 28.25 295.03 28.25 294.99 28.22 269.23 10.14 163.77 10.14 163.77 9.84 269.32 9.84 269.36 9.87 295.12 27.95 609.23 27.95 609.23 28.25"/><circle class="cls-5" cx="609.17" cy="28.1" r="1.11"/><circle class="cls-5" cx="163.83" cy="9.99" r="1.11"/><polygon class="cls-5" points="647.36 38.49 268.67 38.49 268.63 38.46 238.65 17.41 238.82 17.17 268.76 38.19 647.36 38.19 647.36 38.49"/><circle class="cls-5" cx="647.31" cy="38.34" r="1.11"/><path class="cls-5" d="M307.37,418.54a1.12,1.12,0,0,0-1.55.27,1.1,1.1,0,0,0,.27,1.55,1.11,1.11,0,0,0,1.28-1.82Z" transform="translate(-67.95 -402.12)"/><polygon class="cls-5" points="570.8 46.66 229.83 46.66 229.79 46.63 207.4 30.91 141.2 30.91 141.2 30.61 207.49 30.61 207.53 30.64 229.92 46.36 570.8 46.36 570.8 46.66"/><path class="cls-5" d="M638.7,447.52a1.12,1.12,0,1,1-1.12,1.11A1.11,1.11,0,0,1,638.7,447.52Z" transform="translate(-67.95 -402.12)"/><path class="cls-5" d="M209.2,431.77a1.12,1.12,0,1,0,1.11,1.12A1.11,1.11,0,0,0,209.2,431.77Z" transform="translate(-67.95 -402.12)"/><polygon class="cls-5" points="473.48 125.5 146.4 125.5 146.36 125.47 114.71 103.26 39.82 103.26 39.82 102.96 114.81 102.96 114.84 102.99 146.49 125.2 473.38 125.2 503.11 104.34 622.12 104.34 622.12 104.63 503.2 104.63 473.48 125.5"/><circle class="cls-5" cx="622.07" cy="104.49" r="1.11"/><path class="cls-5" d="M107.82,504.12a1.12,1.12,0,1,0,1.11,1.11A1.11,1.11,0,0,0,107.82,504.12Z" transform="translate(-67.95 -402.12)"/><rect class="cls-5" x="475.05" y="94.89" width="123.52" height="0.3"/><circle class="cls-5" cx="598.51" cy="95.04" r="1.11"/><circle class="cls-5" cx="475.1" cy="95.04" r="1.11"/><polygon class="cls-5" points="462.82 116.45 157.6 116.45 157.6 116.15 462.73 116.15 485.38 100.25 485.55 100.49 462.82 116.45"/><path class="cls-5" d="M552.73,501.62a1.11,1.11,0,1,1,1.27,1.82,1.11,1.11,0,1,1-1.27-1.82Z" transform="translate(-67.95 -402.12)"/><circle class="cls-5" cx="157.66" cy="116.3" r="1.11"/><polygon class="cls-5" points="261.47 88.49 164.35 88.49 164.31 88.47 134.9 67.82 12.34 67.82 12.34 67.52 135 67.52 135.03 67.55 164.44 88.2 261.38 88.2 296.71 63.39 634.74 63.39 634.74 63.69 296.81 63.69 261.47 88.49"/><path class="cls-5" d="M702.63,464.55a1.12,1.12,0,1,1-1.11,1.11A1.12,1.12,0,0,1,702.63,464.55Z" transform="translate(-67.95 -402.12)"/><path class="cls-5" d="M80.34,468.68a1.12,1.12,0,1,0,1.11,1.12A1.12,1.12,0,0,0,80.34,468.68Z" transform="translate(-67.95 -402.12)"/><polygon class="cls-5" points="260.91 103.85 162.1 103.85 162.07 103.82 126.77 79.04 22.55 79.04 4.1 91.99 3.93 91.75 22.45 78.75 126.86 78.75 126.9 78.77 162.2 103.55 260.81 103.55 301.2 75.2 541.36 75.2 541.36 75.5 301.29 75.5 260.91 103.85"/><circle class="cls-5" cx="541.3" cy="75.35" r="1.11"/><path class="cls-5" d="M71.37,493.05a1.11,1.11,0,1,0,1.55.27A1.11,1.11,0,0,0,71.37,493.05Z" transform="translate(-67.95 -402.12)"/><polygon class="cls-5" points="248.01 77.47 172.2 77.47 172.16 77.44 145.56 58.77 29.74 58.77 29.7 58.74 0.98 38.58 1.15 38.33 29.84 58.47 145.65 58.47 145.69 58.5 172.29 77.17 247.92 77.17 279.89 54.73 606.14 54.73 606.14 55.03 279.98 55.03 248.01 77.47"/><path class="cls-5" d="M674,455.89a1.11,1.11,0,1,1-1.11,1.11A1.11,1.11,0,0,1,674,455.89Z" transform="translate(-67.95 -402.12)"/><path class="cls-5" d="M69.7,439.7a1.11,1.11,0,1,0,.27,1.55A1.12,1.12,0,0,0,69.7,439.7Z" transform="translate(-67.95 -402.12)"/><polygon class="cls-5" points="241.28 64.87 177.81 64.87 177.77 64.84 155.66 49.32 46.01 49.32 45.97 49.29 26.78 35.82 26.95 35.58 46.1 49.02 155.75 49.02 155.79 49.05 177.9 64.57 241.19 64.57 253.18 56.15 253.35 56.39 241.28 64.87"/><path class="cls-5" d="M320.53,457.52a1.11,1.11,0,1,1-.27,1.55A1.12,1.12,0,0,1,320.53,457.52Z" transform="translate(-67.95 -402.12)"/><path class="cls-5" d="M95.5,437a1.1,1.1,0,0,0-1.55.27,1.11,1.11,0,0,0,1.82,1.28A1.11,1.11,0,0,0,95.5,437Z" transform="translate(-67.95 -402.12)"/><polygon class="cls-5" points="435.9 105.42 296.69 105.42 296.69 105.13 435.81 105.13 461.61 87.01 568.28 87.01 568.28 87.31 461.7 87.31 435.9 105.42"/><circle class="cls-5" cx="568.23" cy="87.16" r="1.11"/><circle class="cls-5" cx="296.75" cy="105.27" r="1.11"/><polygon class="cls-5" points="282.57 106.76 282.4 106.51 304.56 90.95 431.32 90.95 445 81.35 445.17 81.59 431.41 91.25 304.66 91.25 282.57 106.76"/><path class="cls-5" d="M512.35,482.72a1.11,1.11,0,1,1,1.27,1.82,1.11,1.11,0,1,1-1.27-1.82Z" transform="translate(-67.95 -402.12)"/><path class="cls-5" d="M349.84,507.82a1.11,1.11,0,1,0,1.55.27A1.11,1.11,0,0,0,349.84,507.82Z" transform="translate(-67.95 -402.12)"/><polygon class="cls-5" points="152.23 110.3 126.21 92.03 28.15 92.03 4.66 108.53 4.49 108.29 28.06 91.74 126.3 91.74 126.34 91.77 152.4 110.06 152.23 110.3"/><path class="cls-5" d="M220.85,511.36a1.11,1.11,0,1,1-1.55.27A1.11,1.11,0,0,1,220.85,511.36Z" transform="translate(-67.95 -402.12)"/><path class="cls-5" d="M71.93,509.59a1.11,1.11,0,1,0,1.55.27A1.11,1.11,0,0,0,71.93,509.59Z" transform="translate(-67.95 -402.12)"/><polygon class="cls-5" points="243.09 38.64 215.39 19.2 121.82 19.2 107.51 29.24 66.76 29.24 66.72 29.21 38.84 9.64 39.01 9.39 66.85 28.94 107.42 28.94 121.72 18.9 215.48 18.9 215.52 18.93 243.26 38.4 243.09 38.64"/><path class="cls-5" d="M311.71,439.7a1.11,1.11,0,1,1-1.28,1.82,1.11,1.11,0,1,1,1.28-1.82Z" transform="translate(-67.95 -402.12)"/><path class="cls-5" d="M107.56,410.76a1.11,1.11,0,1,0-1.28,1.82,1.1,1.1,0,0,0,1.55-.27A1.12,1.12,0,0,0,107.56,410.76Z" transform="translate(-67.95 -402.12)"/><polygon class="cls-5" points="119.7 123.69 106.02 114.08 64.5 114.08 64.5 113.79 106.11 113.79 106.15 113.81 119.87 123.44 119.7 123.69"/><path class="cls-5" d="M188.32,524.75a1.1,1.1,0,0,1,.27,1.55,1.11,1.11,0,1,1-.27-1.55Z" transform="translate(-67.95 -402.12)"/><circle class="cls-5" cx="64.55" cy="113.94" r="1.11"/><polygon class="cls-5" points="499.06 120.54 498.89 120.3 510.96 111.82 578.38 111.82 578.38 112.12 511.06 112.12 499.06 120.54"/><circle class="cls-5" cx="578.32" cy="111.97" r="1.11"/><path class="cls-5" d="M566.33,521.6a1.1,1.1,0,0,0-.27,1.55,1.11,1.11,0,1,0,.27-1.55Z" transform="translate(-67.95 -402.12)"/><polygon class="cls-5" points="227.28 55.81 194.64 55.81 194.6 55.79 173.88 41.24 49.37 41.24 49.33 41.22 27.2 25.68 27.37 25.44 49.47 40.95 173.98 40.95 174.02 40.98 194.73 55.52 227.28 55.52 227.28 55.81"/><circle class="cls-5" cx="227.22" cy="55.67" r="1.11"/><path class="cls-5" d="M95.92,426.81a1.1,1.1,0,0,0-1.55.27,1.11,1.11,0,1,0,1.55-.27Z" transform="translate(-67.95 -402.12)"/><polygon class="cls-5" points="206.63 48.48 190.71 37.31 99.27 37.31 99.27 37.01 190.8 37.01 190.84 37.04 206.8 48.24 206.63 48.48"/><path class="cls-5" d="M275.26,449.55a1.11,1.11,0,1,1-1.55.27A1.1,1.1,0,0,1,275.26,449.55Z" transform="translate(-67.95 -402.12)"/><circle class="cls-5" cx="99.33" cy="37.16" r="1.11"/></g><polygon class="cls-5" points="484.2 23.97 463.98 23.97 463.94 23.94 440.64 9.32 308.44 9.32 286.01 23.39 124.76 23.39 124.76 23.1 285.93 23.1 308.35 9.02 440.72 9.02 440.76 9.04 464.06 23.67 484.12 23.67 500.81 13.2 500.96 13.45 484.2 23.97"/><circle class="cls-5" cx="124.82" cy="23.24" r="1.11"/><path class="cls-5" d="M569.38,416.42a1.11,1.11,0,1,0-1.54-.35A1.12,1.12,0,0,0,569.38,416.42Z" transform="translate(-67.95 -402.12)"/><polygon class="cls-5" points="305.69 29.71 49.47 29.71 49.47 29.41 305.61 29.41 326.66 16.2 412.61 16.2 412.61 16.5 326.75 16.5 305.69 29.71"/><circle class="cls-5" cx="49.52" cy="29.56" r="1.11"/><circle class="cls-5" cx="412.56" cy="16.35" r="1.11"/><polygon class="cls-5" points="327.2 37.18 18.34 37.18 18.34 36.88 327.12 36.88 351.36 21.67 351.52 21.92 327.2 37.18"/><path class="cls-5" d="M86.34,440.27a1.12,1.12,0,1,1,1.12-1.11A1.11,1.11,0,0,1,86.34,440.27Z" transform="translate(-67.95 -402.12)"/><path class="cls-5" d="M419.93,424.89a1.11,1.11,0,1,0-1.53-.35A1.1,1.1,0,0,0,419.93,424.89Z" transform="translate(-67.95 -402.12)"/><polygon class="cls-5" points="358.9 43.14 80.82 43.14 80.82 42.84 358.82 42.84 377.13 31.36 431.04 31.36 431.04 31.65 377.21 31.65 358.9 43.14"/><path class="cls-5" d="M148.82,446.23a1.11,1.11,0,1,1,1.12-1.11A1.11,1.11,0,0,1,148.82,446.23Z" transform="translate(-67.95 -402.12)"/><path class="cls-5" d="M498.93,434.74a1.12,1.12,0,1,0-1.11-1.11A1.11,1.11,0,0,0,498.93,434.74Z" transform="translate(-67.95 -402.12)"/><polygon class="cls-5" points="426.99 100.66 160.05 100.66 160.01 100.64 135.79 85.44 38.94 85.44 38.94 85.14 135.88 85.14 135.91 85.17 160.14 100.36 426.9 100.36 452.76 84.14 513.77 84.14 513.77 84.43 452.85 84.43 426.99 100.66"/><circle class="cls-5" cx="38.99" cy="85.29" r="1.11"/><circle class="cls-5" cx="513.72" cy="84.28" r="1.11"/><rect class="cls-5" x="58.16" y="78.25" width="100.41" height="0.3"/><path class="cls-5" d="M126.17,481.64a1.12,1.12,0,1,1,1.11-1.12A1.12,1.12,0,0,1,126.17,481.64Z" transform="translate(-67.95 -402.12)"/><path class="cls-5" d="M226.47,481.64a1.12,1.12,0,1,0-1.11-1.12A1.12,1.12,0,0,0,226.47,481.64Z" transform="translate(-67.95 -402.12)"/><polygon class="cls-5" points="417.65 94.06 168.75 94.06 168.71 94.03 150.38 82.53 150.54 82.28 168.83 93.76 417.65 93.76 417.65 94.06"/><path class="cls-5" d="M217.86,485.5a1.11,1.11,0,1,1,1.54-.35A1.11,1.11,0,0,1,217.86,485.5Z" transform="translate(-67.95 -402.12)"/><circle class="cls-5" cx="417.59" cy="93.91" r="1.11"/><polygon class="cls-5" points="412.34 73.66 333.07 73.66 333.03 73.64 304.23 55.56 28.64 55.56 28.64 55.27 304.32 55.27 304.36 55.29 333.16 73.36 412.25 73.36 436.29 58.28 536.2 58.28 536.2 58.58 436.37 58.58 412.34 73.66"/><circle class="cls-5" cx="28.7" cy="55.42" r="1.11"/><circle class="cls-5" cx="536.14" cy="58.43" r="1.11"/><polygon class="cls-5" points="414.17 84.86 333.53 84.86 333.49 84.84 300.57 64.18 104.85 64.18 104.85 63.89 300.66 63.89 300.69 63.91 333.61 84.57 414.09 84.57 442.92 66.47 528.14 66.47 528.18 66.49 543.08 75.84 542.92 76.09 528.06 66.77 443.01 66.77 414.17 84.86"/><path class="cls-5" d="M172.85,467.27a1.11,1.11,0,1,1,1.12-1.11A1.11,1.11,0,0,1,172.85,467.27Z" transform="translate(-67.95 -402.12)"/><path class="cls-5" d="M610.31,479a1.11,1.11,0,1,0-.35-1.54A1.11,1.11,0,0,0,610.31,479Z" transform="translate(-67.95 -402.12)"/><polygon class="cls-5" points="405.93 65.62 344.06 65.62 344.02 65.59 317.96 49.24 51.98 49.24 51.98 48.95 318.05 48.95 318.09 48.97 344.14 65.32 405.85 65.32 427.59 51.68 522.11 51.68 545.32 37.11 545.48 37.36 522.2 51.98 427.68 51.98 405.93 65.62"/><circle class="cls-5" cx="52.04" cy="49.1" r="1.11"/><path class="cls-5" d="M613.89,440.33a1.11,1.11,0,1,0-1.53-.35A1.1,1.1,0,0,0,613.89,440.33Z" transform="translate(-67.95 -402.12)"/><polygon class="cls-5" points="401.36 56.43 349.55 56.43 349.51 56.4 339.88 50.36 340.04 50.11 349.63 56.13 401.27 56.13 419.35 44.78 508.83 44.78 524.27 35.1 524.42 35.35 508.92 45.08 419.44 45.08 401.36 56.43"/><path class="cls-5" d="M407.36,453.33a1.11,1.11,0,1,1,1.54-.35A1.12,1.12,0,0,1,407.36,453.33Z" transform="translate(-67.95 -402.12)"/><path class="cls-5" d="M592.84,438.32a1.11,1.11,0,1,0-1.54-.35A1.11,1.11,0,0,0,592.84,438.32Z" transform="translate(-67.95 -402.12)"/><polygon class="cls-5" points="304.13 86.01 190.72 86.01 190.68 85.99 169.66 72.8 82.88 72.8 82.88 72.5 169.75 72.5 169.78 72.53 190.8 85.72 304.13 85.72 304.13 86.01"/><circle class="cls-5" cx="82.94" cy="72.65" r="1.11"/><circle class="cls-5" cx="304.08" cy="85.86" r="1.11"/><polygon class="cls-5" points="315.66 86.86 297.83 75.67 194.38 75.67 194.34 75.65 183.34 68.74 183.5 68.49 194.47 75.38 297.91 75.38 297.95 75.4 315.82 86.61 315.66 86.86"/><path class="cls-5" d="M250.82,471.71a1.11,1.11,0,1,1,1.53-.35A1.1,1.1,0,0,1,250.82,471.71Z" transform="translate(-67.95 -402.12)"/><path class="cls-5" d="M383.05,489.78a1.11,1.11,0,1,0-.35-1.54A1.11,1.11,0,0,0,383.05,489.78Z" transform="translate(-67.95 -402.12)"/><polygon class="cls-5" points="422.43 89.45 422.27 89.2 443.38 75.95 523.57 75.95 523.6 75.97 542.62 87.91 542.46 88.16 523.48 76.25 443.47 76.25 422.43 89.45"/><path class="cls-5" d="M490.93,492.36a1.11,1.11,0,0,1-1.18-1.88,1.11,1.11,0,1,1,1.18,1.88Z" transform="translate(-67.95 -402.12)"/><path class="cls-5" d="M609.85,491.07a1.1,1.1,0,0,0,1.53-.35,1.11,1.11,0,1,0-1.88-1.18A1.11,1.11,0,0,0,609.85,491.07Z" transform="translate(-67.95 -402.12)"/><polygon class="cls-5" points="348.28 37.17 348.12 36.92 370.6 22.81 447.13 22.81 447.16 22.83 458.8 30.14 491.9 30.14 514.42 16 514.58 16.25 491.98 30.43 458.71 30.43 458.68 30.41 447.04 23.11 370.69 23.11 348.28 37.17"/><path class="cls-5" d="M416.78,440.08a1.11,1.11,0,1,1,.35-1.53A1.11,1.11,0,0,1,416.78,440.08Z" transform="translate(-67.95 -402.12)"/><path class="cls-5" d="M583,419.22a1.11,1.11,0,0,0,.35-1.53,1.13,1.13,0,0,0-1.54-.36,1.12,1.12,0,1,0,1.19,1.89Z" transform="translate(-67.95 -402.12)"/><polygon class="cls-5" points="448.98 99.22 448.82 98.97 459.86 92.04 493.63 92.04 493.63 92.33 459.94 92.33 448.98 99.22"/><path class="cls-5" d="M517.48,502.13a1.11,1.11,0,0,1-1.53-.35,1.11,1.11,0,1,1,1.88-1.18A1.11,1.11,0,0,1,517.48,502.13Z" transform="translate(-67.95 -402.12)"/><path class="cls-5" d="M561.52,495.42a1.11,1.11,0,1,0-1.11-1.11A1.12,1.12,0,0,0,561.52,495.42Z" transform="translate(-67.95 -402.12)"/><polygon class="cls-5" points="138.98 96.92 129.38 90.9 74.64 90.9 74.64 90.6 129.47 90.6 129.5 90.62 139.14 96.67 138.98 96.92"/><path class="cls-5" d="M142.64,494a1.12,1.12,0,1,1,1.12-1.12A1.12,1.12,0,0,1,142.64,494Z" transform="translate(-67.95 -402.12)"/><path class="cls-5" d="M206.37,499.83a1.11,1.11,0,1,0-.35-1.53A1.11,1.11,0,0,0,206.37,499.83Z" transform="translate(-67.95 -402.12)"/><polygon class="cls-5" points="387.62 49.82 361.18 49.82 361.18 49.52 387.54 49.52 404.47 38.9 506.09 38.9 523.92 27.7 524.08 27.95 506.17 39.19 404.56 39.19 387.62 49.82"/><circle class="cls-5" cx="361.23" cy="49.67" r="1.11"/><path class="cls-5" d="M592.49,430.92a1.11,1.11,0,1,0-1.53-.35A1.12,1.12,0,0,0,592.49,430.92Z" transform="translate(-67.95 -402.12)"/><polygon class="cls-5" points="378.03 44.35 377.87 44.1 390.74 36.02 465.25 36.02 465.25 36.32 390.83 36.32 378.03 44.35"/><path class="cls-5" d="M446.53,447.26a1.11,1.11,0,1,1-1.18-1.88,1.11,1.11,0,1,1,1.18,1.88Z" transform="translate(-67.95 -402.12)"/><circle class="cls-5" cx="465.2" cy="36.17" r="1.11"/></g></g></svg>